<svg width="42" height="38" viewBox="0 0 42 38" fill="none" xmlns="http://www.w3.org/2000/svg">
<path d="M23.358 18.5636C23.358 17.0745 22.1505 15.8665 20.662 15.8665C19.173 15.8665 17.9661 17.0745 17.9661 18.5636C17.9661 20.0533 19.173 21.2608 20.662 21.2608C22.1505 21.2608 23.358 20.0533 23.358 18.5636Z" fill="#A0DCF0"/>
<path d="M28.4208 37.1273C26.4694 37.1273 24.1878 36.1865 21.7611 34.346C18.4602 31.8438 15.1699 27.9143 12.4964 23.2807C9.82227 18.6471 8.06591 13.831 7.55002 9.72012C6.98804 5.23979 7.97556 2.02239 10.3313 0.661655C12.6864 -0.699077 15.9649 0.0541852 19.5623 2.78126C22.8632 5.28403 26.1535 9.21358 28.827 13.8472C31.5011 18.4808 33.2575 23.2963 33.7734 27.4071C34.336 31.8881 33.3478 35.1055 30.9927 36.4656C30.2264 36.9086 29.3616 37.1273 28.4208 37.1273ZM12.9257 2.50151C12.416 2.50151 11.9643 2.60992 11.5824 2.83048C10.1749 3.64293 9.61043 6.04041 10.0329 9.40859C10.5082 13.1955 12.1525 17.6777 14.6633 22.0284C17.1742 26.3797 20.2321 30.0451 23.2726 32.3504C25.9766 34.4002 28.3342 35.1099 29.741 34.2974C31.1485 33.4843 31.713 31.0868 31.2905 27.7193C30.8151 23.9318 29.1709 19.4502 26.6601 15.0989C24.1492 10.7481 21.0919 7.08214 18.0508 4.77687C16.0808 3.28343 14.2945 2.50151 12.9257 2.50151Z" fill="#54A1FF"/>
<path d="M12.9026 37.1273C11.9618 37.1273 11.0976 36.9086 10.3313 36.4656C7.97556 35.1055 6.98804 31.8881 7.55002 27.4071C8.06591 23.2963 9.82227 18.4808 12.4964 13.8472C15.1699 9.21358 18.4602 5.28403 21.7611 2.78126C25.3585 0.0541852 28.637 -0.699077 30.9927 0.661655C33.3478 2.02239 34.336 5.23979 33.7734 9.72012C33.2575 13.831 31.5011 18.6471 28.827 23.2807C26.1535 27.9137 22.8632 31.8438 19.5623 34.346C17.1356 36.1859 14.854 37.1273 12.9026 37.1273ZM28.3977 2.50151C27.0289 2.50151 25.2433 3.28343 23.2726 4.77687C20.2321 7.08214 17.1742 10.7481 14.664 15.0989C12.1531 19.4502 10.5082 23.9318 10.0335 27.7193C9.61043 31.0868 10.1755 33.4843 11.5824 34.2974C12.9898 35.1105 15.3474 34.4002 18.0514 32.3504C21.0919 30.0451 24.1492 26.3797 26.6601 22.0284C29.1709 17.6777 30.8151 13.1961 31.2905 9.40859C31.713 6.04041 31.1485 3.64293 29.741 2.83048C29.3597 2.60992 28.9074 2.50151 28.3977 2.50151Z" fill="#54A1FF"/>
<path d="M20.662 27.9973C15.3144 27.9973 10.2672 27.1113 6.45101 25.5026C2.29094 23.7494 0 21.2852 0 18.5638C0 15.8423 2.29094 13.3788 6.45101 11.6249C10.2672 10.0168 15.3144 9.13086 20.662 9.13086C26.0096 9.13086 31.0563 10.0168 34.8731 11.6249C39.0325 13.3788 41.3235 15.8423 41.3235 18.5638C41.3235 21.2852 39.0325 23.7494 34.8731 25.5026C31.0563 27.1113 26.0096 27.9973 20.662 27.9973ZM20.662 11.6349C9.96062 11.6349 2.50277 15.2866 2.50277 18.5638C2.50277 21.8416 9.96062 25.4933 20.662 25.4933C31.3628 25.4933 38.8207 21.8416 38.8207 18.5638C38.8207 15.2866 31.3628 11.6349 20.662 11.6349Z" fill="#54A1FF"/>
</svg>
