<?xml version="1.0" encoding="UTF-8" standalone="no"?>
<svg width="111px" height="31px" viewBox="0 0 111 31" version="1.1" xmlns="http://www.w3.org/2000/svg" xmlns:xlink="http://www.w3.org/1999/xlink">
    <!-- Generator: Sketch 3.8.3 (29802) - http://www.bohemiancoding.com/sketch -->
    <title>Group 18</title>
    <desc>Created with Sketch.</desc>
    <defs>
        <polygon id="path-1" points="14.322108 0.402367347 0.204176571 0.402367347 0.204176571 30.3671571 14.322108 30.3671571 14.322108 0.402367347"></polygon>
        <polygon id="path-3" points="16.59672 29.3791429 16.59672 0.204346939 0.591329882 0.204346939 0.591329882 29.3791429 16.59672 29.3791429"></polygon>
    </defs>
    <g id="Symbols" stroke="none" stroke-width="1" fill="none" fill-rule="evenodd">
        <g id="Logo-Osedea">
            <g id="Group-18" transform="translate(0.000000, 0.230412)">
                <path d="M8.77572343,0.837189796 L6.26458629,0.837189796 C6.04258629,0.837189796 5.85230057,0.992822449 5.80726629,1.2091898 L0.00989485714,29.4514551 C-0.018648,29.5887408 0.0156034286,29.7310878 0.105037714,29.8399041 C0.193203429,29.9487204 0.325769143,30.0113531 0.466580571,30.0113531 L2.97644914,30.0113531 C3.19971771,30.0113531 3.39063771,29.8544551 3.43503771,29.6380878 L9.23304343,1.39582245 C9.26158629,1.25853673 9.225432,1.1161898 9.13726629,1.00800612 C9.04846629,0.900455102 8.91590057,0.837189796 8.77572343,0.837189796" id="Fill-1" fill="#EE4028"></path>
                <g id="Group-5" transform="translate(17.125714, 0.000000)">
                    <mask id="mask-2" fill="white">
                        <use xlink:href="#path-1"></use>
                    </mask>
                    <g id="Clip-4"></g>
                    <path d="M3.87859371,7.12664694 C3.87859371,5.4545449 4.75707943,3.66919796 7.22445086,3.66919796 C9.393708,3.66919796 10.6882851,4.91742245 10.6882851,7.00707551 L10.6882851,23.4459327 C10.6882851,24.2936878 10.4447194,27.0602796 7.30373657,27.0602796 C4.77801086,27.0602796 3.87859371,25.214198 3.87859371,23.4851571 L3.87859371,7.12664694 Z M7.34369657,0.402177551 C3.00645086,0.402177551 0.204176571,3.11815714 0.204176571,7.32340204 L0.204176571,23.4459327 C0.204176571,27.7802388 2.81299371,30.3671571 7.18385657,30.3671571 C11.587068,30.3671571 14.322108,27.6397898 14.322108,23.2479122 L14.322108,6.96721837 C14.322108,2.91697347 11.6479594,0.402177551 7.34369657,0.402177551 L7.34369657,0.402177551 Z" id="Fill-3" fill="#1C1C1C" mask="url(#mask-2)"></path>
                </g>
                <g id="Group-8" transform="translate(33.617143, 0.000000)" fill="#1C1C1C">
                    <path d="M7.09740343,11.7331204 C5.806632,10.2432224 4.42896343,8.50912041 4.42896343,6.76932449 C4.42896343,5.28322245 4.89960343,3.51116122 7.14053486,3.51116122 C8.31776914,3.51116122 9.57111771,3.95591633 9.935832,7.25646735 C9.96183771,7.49750816 10.1673463,7.67781429 10.4140834,7.67022245 L12.8744777,7.59114082 C13.0007006,7.5873449 13.119312,7.53293673 13.203672,7.43930408 C13.2893006,7.34630408 13.332432,7.22293673 13.3248206,7.09830408 C12.990552,1.5638551 9.84132343,0.402304082 7.25978057,0.402304082 C3.42044914,0.402304082 1.03553486,2.91646735 1.03553486,6.9673449 C1.03553486,9.33473265 2.07005486,11.5983653 4.283712,14.0834265 L7.79004343,18.1735286 C9.27300343,19.8032429 10.0905977,21.6898143 10.0905977,23.4852837 C10.0905977,24.6196306 9.81024343,27.2577939 7.22108914,27.2577939 C5.358192,27.2577939 4.314792,25.8665898 4.03253486,23.003202 C4.00779771,22.7602633 3.78452914,22.5660388 3.55301486,22.5843857 L1.01079771,22.6634673 C0.883306286,22.6672633 0.763426286,22.7229367 0.679066286,22.817202 C0.593437714,22.9121 0.550306286,23.0354673 0.559186286,23.1626306 C0.894723429,27.8088347 3.26060914,30.3672837 7.22108914,30.3672837 C11.0750091,30.3672837 13.5652149,27.5741204 13.5652149,23.2480388 C13.5652149,20.4542429 12.5015177,17.9894265 10.117872,15.2607939 L7.09740343,11.7331204 Z" id="Fill-6"></path>
                </g>
                <path d="M61.5741737,26.7438265 L54.057888,26.7438265 L54.057888,16.3455408 L59.9846537,16.3455408 C60.2421737,16.3455408 60.451488,16.1367653 60.451488,15.8799082 L60.451488,13.5435204 C60.451488,13.2860306 60.2421737,13.0772551 59.9846537,13.0772551 L54.057888,13.0772551 L54.057888,4.02652041 L61.5335794,4.02652041 C61.7910994,4.02652041 62.0004137,3.8177449 62.0004137,3.5602551 L62.0004137,1.30294898 C62.0004137,1.04609184 61.7910994,0.837316327 61.5335794,0.837316327 L50.9302251,0.837316327 C50.6727051,0.837316327 50.4627566,1.04609184 50.4627566,1.30294898 L50.4627566,29.5458469 C50.4627566,29.8027041 50.6727051,30.0114796 50.9302251,30.0114796 L61.5741737,30.0114796 C61.8316937,30.0114796 62.0397394,29.8027041 62.0397394,29.5458469 L62.0397394,27.2094592 C62.0397394,26.952602 61.8316937,26.7438265 61.5741737,26.7438265" id="Fill-9" fill="#1C1C1C"></path>
                <path d="M68.9960143,4.06593469 L71.9454429,4.06593469 C74.0715686,4.06593469 75.2906657,5.25342449 75.2906657,7.32283265 L75.2906657,23.3270571 C75.2906657,23.8983429 75.12702,26.7440163 71.9048486,26.7440163 L68.9960143,26.7440163 L68.9960143,4.06593469 Z M72.22326,0.836873469 L65.8689857,0.836873469 C65.6114657,0.836873469 65.4021514,1.04628163 65.4021514,1.30313878 L65.4021514,29.5454041 C65.4021514,29.8028939 65.6114657,30.0116694 65.8689857,30.0116694 L72.1027457,30.0116694 C76.3359686,30.0116694 78.9650829,27.4506898 78.9650829,23.3270571 L78.9650829,7.00650612 C78.9650829,3.20109796 76.3822714,0.836873469 72.22326,0.836873469 L72.22326,0.836873469 Z" id="Fill-11" fill="#1C1C1C"></path>
                <path d="M93.873144,0.837189796 L83.2685211,0.837189796 C83.0110011,0.837189796 82.8029554,1.04596531 82.8029554,1.30282245 L82.8029554,29.5457204 C82.8029554,29.8025776 83.0110011,30.0113531 83.2685211,30.0113531 L90.6382869,30.0113531 C90.8602869,30.0113531 91.0512069,29.8557204 91.0956069,29.6393531 L91.5751269,27.303598 C91.6036697,27.1663122 91.568784,27.0233327 91.479984,26.9145163 C91.3918183,26.8069653 91.2592526,26.7437 91.1178069,26.7437 L86.3980869,26.7437 L86.3980869,16.3460469 L92.3248526,16.3460469 C92.5823726,16.3460469 92.7916869,16.1372714 92.7916869,15.8797816 L92.7916869,13.5433939 C92.7916869,13.2865367 92.5823726,13.0777612 92.3248526,13.0777612 L86.3980869,13.0777612 L86.3980869,4.02639388 L93.873144,4.02639388 C94.1319326,4.02639388 94.3399783,3.81761837 94.3399783,3.56076122 L94.3399783,1.30282245 C94.3399783,1.04596531 94.1319326,0.837189796 93.873144,0.837189796" id="Fill-13" fill="#1C1C1C"></path>
                <g id="Group-17" transform="translate(93.874286, 0.632653)">
                    <mask id="mask-4" fill="white">
                        <use xlink:href="#path-3"></use>
                    </mask>
                    <g id="Clip-16"></g>
                    <path d="M6.44205943,17.2404286 L8.58404229,6.80418367 L10.7272937,17.2404286 L6.44205943,17.2404286 Z M16.5424251,28.6933469 L10.7691566,0.576346939 C10.7260251,0.359979592 10.5338366,0.204346939 10.3124709,0.204346939 L9.36675086,0.204346939 L7.80133371,0.204346939 L6.85688229,0.204346939 C6.634248,0.204346939 6.443328,0.359979592 6.40019657,0.576346939 L0.600922286,28.8192449 C0.572379429,28.9565306 0.608533714,29.0982449 0.696065143,29.2070612 C0.785499429,29.3158776 0.918065143,29.3791429 1.05824229,29.3791429 L3.56937943,29.3791429 C3.79074514,29.3791429 3.98293371,29.2228776 4.02606514,29.0058776 L5.78049943,20.461898 L11.3888537,20.461898 L13.1426537,29.0058776 C13.1864194,29.2228776 13.378608,29.3791429 13.5999737,29.3791429 L16.1111109,29.3791429 L16.1295051,29.3791429 C16.3876594,29.3791429 16.5969737,29.1703673 16.5969737,28.9128776 C16.5969737,28.8337959 16.5773109,28.7585102 16.5424251,28.6933469 L16.5424251,28.6933469 Z" id="Fill-15" fill="#1C1C1C" mask="url(#mask-4)"></path>
                </g>
            </g>
        </g>
    </g>
</svg>