<svg width="213" height="213" viewBox="0 0 213 213" fill="none" xmlns="http://www.w3.org/2000/svg">
<g filter="url(#filter0_d)">
<path d="M201 102.5C201 115.073 198.597 127.082 194.221 138.099C191.882 143.991 188.979 149.6 185.575 154.854C181.337 161.408 176.323 167.415 170.667 172.74C167.355 175.864 163.826 178.751 160.099 181.382C144.384 192.481 125.206 199 104.5 199C83.794 199 64.6161 192.481 48.9002 181.382C44.2365 178.089 39.8804 174.399 35.8825 170.349C18.6425 152.92 8 128.949 8 102.5C8 76.0511 18.6425 52.0799 35.8825 34.6507C40.1168 30.3655 44.7526 26.4776 49.7272 23.0432C65.2856 12.294 84.1562 6 104.5 6C124.844 6 143.714 12.294 159.273 23.0432C163.074 25.6626 166.674 28.5535 170.049 31.6848C175.961 37.1518 181.184 43.3553 185.576 50.1457C188.979 55.4001 191.882 61.0088 194.222 66.9013C198.597 77.9181 201 89.9275 201 102.5Z" fill="#1B1D2E"/>
<path d="M112.646 102.236C112.646 97.6476 108.925 93.9253 104.339 93.9253C99.7511 93.9253 96.0327 97.6476 96.0327 102.236C96.0327 106.826 99.7511 110.546 104.339 110.546C108.925 110.546 112.646 106.826 112.646 102.236Z" fill="#A0DCF0"/>
<path d="M128.245 159.433C122.233 159.433 115.203 156.534 107.726 150.863C97.5552 143.154 87.4174 131.046 79.18 116.77C70.9407 102.493 65.5291 87.6537 63.9396 74.9876C62.208 61.1831 65.2507 51.2698 72.5091 47.0772C79.7655 42.8846 89.8669 45.2055 100.951 53.608C111.122 61.3194 121.26 73.4269 129.497 87.7036C137.736 101.98 143.148 116.818 144.737 129.484C146.471 143.29 143.426 153.203 136.17 157.394C133.808 158.759 131.144 159.433 128.245 159.433ZM80.5027 52.7461C78.9324 52.7461 77.5406 53.0801 76.3638 53.7597C72.0272 56.2629 70.288 63.6499 71.5896 74.0277C73.0543 85.6956 78.1203 99.5058 85.8567 112.911C93.593 126.318 103.015 137.612 112.383 144.714C120.714 151.03 127.978 153.217 132.313 150.713C136.65 148.208 138.389 140.821 137.087 130.445C135.623 118.776 130.557 104.967 122.82 91.5602C115.084 78.155 105.664 66.8596 96.294 59.7568C90.2239 55.1553 84.7202 52.7461 80.5027 52.7461Z" fill="#54A1FF"/>
<path d="M80.4316 159.433C77.5329 159.433 74.8703 158.759 72.5091 157.394C65.2507 153.203 62.208 143.29 63.9396 129.484C65.5291 116.818 70.9407 101.98 79.18 87.7036C87.4174 73.4269 97.5552 61.3194 107.726 53.608C118.81 45.2055 128.911 42.8846 136.17 47.0772C143.426 51.2698 146.471 61.1831 144.737 74.9876C143.148 87.6537 137.736 102.493 129.497 116.77C121.26 131.044 111.122 143.154 100.951 150.863C93.474 156.532 86.4441 159.433 80.4316 159.433ZM128.174 52.7461C123.957 52.7461 118.455 55.1553 112.383 59.7568C103.015 66.8596 93.593 78.155 85.8586 91.5602C78.1222 104.967 73.0543 118.776 71.5915 130.445C70.288 140.821 72.0292 148.208 76.3638 150.713C80.7004 153.219 87.9645 151.03 96.2959 144.714C105.664 137.612 115.084 126.318 122.82 112.911C130.557 99.5058 135.623 85.6975 137.087 74.0277C138.389 63.6499 136.65 56.2629 132.313 53.7597C131.138 53.0801 129.745 52.7461 128.174 52.7461Z" fill="#54A1FF"/>
<path d="M104.339 131.302C87.8627 131.302 72.3114 128.572 60.5533 123.615C47.7356 118.213 40.6769 110.621 40.6769 102.236C40.6769 93.8504 47.7356 86.2599 60.5533 80.856C72.3114 75.9013 87.8627 73.1715 104.339 73.1715C120.816 73.1715 136.366 75.9013 148.126 80.856C160.941 86.2599 168 93.8504 168 102.236C168 110.621 160.941 118.213 148.126 123.615C136.366 128.572 120.816 131.302 104.339 131.302ZM104.339 80.8867C71.3669 80.8867 48.3883 92.138 48.3883 102.236C48.3883 112.335 71.3669 123.586 104.339 123.586C137.31 123.586 160.289 112.335 160.289 102.236C160.289 92.138 137.31 80.8867 104.339 80.8867Z" fill="#54A1FF"/>
</g>
<defs>
<filter id="filter0_d" x="0" y="0" width="213" height="213" filterUnits="userSpaceOnUse" color-interpolation-filters="sRGB">
<feFlood flood-opacity="0" result="BackgroundImageFix"/>
<feColorMatrix in="SourceAlpha" type="matrix" values="0 0 0 0 0 0 0 0 0 0 0 0 0 0 0 0 0 0 127 0"/>
<feOffset dx="2" dy="4"/>
<feGaussianBlur stdDeviation="5"/>
<feColorMatrix type="matrix" values="0 0 0 0 0 0 0 0 0 0 0 0 0 0 0 0 0 0 0.2 0"/>
<feBlend mode="normal" in2="BackgroundImageFix" result="effect1_dropShadow"/>
<feBlend mode="normal" in="SourceGraphic" in2="effect1_dropShadow" result="shape"/>
</filter>
</defs>
</svg>
