<svg width="334" height="292" viewBox="0 0 334 292" fill="none" xmlns="http://www.w3.org/2000/svg">
<path d="M332.858 149.867L253.614 286.971C252.092 289.604 249.289 291.217 246.244 291.217H87.7503C84.7128 291.217 81.9073 289.604 80.386 286.971L74.0817 276.059C86.0303 274.594 97.645 272.073 108.842 268.59H236.153C237.341 268.59 238.439 267.956 239.033 266.926L308.191 147.277C308.785 146.254 308.785 144.987 308.191 143.957L243.78 32.5278C241.148 21.2928 237.557 10.4216 233.108 0.0134888H246.244C249.287 0.0134888 252.092 1.63666 253.614 4.26732L332.858 141.372C334.379 143.997 334.379 147.236 332.858 149.867V149.867Z" fill="#5B5C6C"/>
<path d="M249.042 78.1954C249.042 167.643 190.071 243.336 108.842 268.59C97.6425 272.073 86.0302 274.594 74.0817 276.059L1.14157 149.867C-0.379711 147.236 -0.379711 143.997 1.14157 141.374L80.3859 4.26732C81.9072 1.63666 84.7128 0.0134888 87.7503 0.0134888H233.108C237.557 10.4216 241.148 21.2953 243.78 32.5278C247.22 47.1948 249.042 62.4827 249.042 78.1954Z" fill="#707384"/>
<path d="M308.191 147.277L239.033 266.926C238.439 267.956 237.341 268.59 236.153 268.59H108.842C190.071 243.336 249.042 167.643 249.042 78.1954C249.042 62.4827 247.22 47.1949 243.78 32.5278L308.191 143.957C308.785 144.987 308.785 146.254 308.191 147.277Z" fill="#464655"/>
<path d="M249.042 78.1954C249.042 167.643 190.071 243.336 108.842 268.59H97.8412C96.6538 268.59 95.5555 267.956 94.9617 266.926L25.8108 147.277C25.2171 146.254 25.2171 144.987 25.8108 143.957L94.9617 24.3127C95.5555 23.2849 96.6538 22.6488 97.8412 22.6488H236.153C237.341 22.6488 238.439 23.2823 239.033 24.3127L243.78 32.5278C247.22 47.1948 249.042 62.4827 249.042 78.1954Z" fill="#5B5C6C"/>
<path d="M179.053 145.779C179.053 138.972 173.524 133.449 166.709 133.449C159.89 133.449 154.364 138.972 154.364 145.779C154.364 152.59 159.89 158.11 166.709 158.11C173.524 158.11 179.053 152.59 179.053 145.779V145.779Z" fill="#A0DCF0"/>
<path d="M202.236 230.646C193.3 230.646 182.853 226.345 171.741 217.931C156.627 206.492 141.56 188.527 129.319 167.344C117.074 146.161 109.032 124.143 106.67 105.35C104.096 84.8676 108.618 70.1588 119.405 63.938C130.189 57.7172 145.201 61.1609 161.673 73.628C176.788 85.0698 191.854 103.034 204.096 124.217C216.34 145.401 224.383 167.415 226.745 186.209C229.321 206.694 224.796 221.403 214.012 227.621C210.503 229.646 206.544 230.646 202.236 230.646V230.646ZM131.284 72.3491C128.951 72.3491 126.882 72.8448 125.134 73.8531C118.689 77.5673 116.104 88.5277 118.038 103.926C120.215 121.238 127.744 141.729 139.241 161.619C150.738 181.512 164.74 198.269 178.662 208.807C191.044 218.178 201.839 221.423 208.281 217.708C214.726 213.991 217.31 203.031 215.376 187.636C213.199 170.321 205.671 149.833 194.173 129.94C182.676 110.05 168.677 93.2901 154.752 82.7513C145.731 75.9238 137.552 72.3491 131.284 72.3491Z" fill="#54A1FF"/>
<path d="M131.179 230.646C126.871 230.646 122.914 229.646 119.405 227.621C108.618 221.403 104.096 206.694 106.67 186.209C109.032 167.415 117.074 145.401 129.319 124.217C141.56 103.034 156.627 85.0698 171.741 73.628C188.214 61.1609 203.226 57.7172 214.012 63.938C224.796 70.1588 229.321 84.8676 226.745 105.35C224.383 124.143 216.34 146.161 204.096 167.344C191.854 188.524 176.788 206.492 161.673 217.931C150.561 226.342 140.114 230.646 131.179 230.646V230.646ZM202.13 72.3491C195.862 72.3491 187.686 75.9238 178.662 82.7513C164.74 93.2901 150.738 110.05 139.244 129.94C127.747 149.833 120.215 170.321 118.041 187.636C116.104 203.031 118.692 213.991 125.134 217.708C131.578 221.426 142.374 218.178 154.755 208.807C168.677 198.269 182.676 181.512 194.173 161.619C205.671 141.729 213.199 121.241 215.376 103.926C217.31 88.5277 214.726 77.5673 208.281 73.8531C206.535 72.8448 204.464 72.3491 202.13 72.3491V72.3491Z" fill="#54A1FF"/>
<path d="M166.709 188.906C142.222 188.906 119.111 184.856 101.637 177.501C82.5885 169.486 72.0984 158.221 72.0984 145.779C72.0984 133.338 82.5885 122.075 101.637 114.057C119.111 106.706 142.222 102.655 166.709 102.655C191.195 102.655 214.303 106.706 231.78 114.057C250.826 122.075 261.316 133.338 261.316 145.779C261.316 158.221 250.826 169.486 231.78 177.501C214.303 184.856 191.195 188.906 166.709 188.906ZM166.709 114.103C117.708 114.103 83.5585 130.797 83.5585 145.779C83.5585 160.764 117.708 177.459 166.709 177.459C215.707 177.459 249.856 160.764 249.856 145.779C249.856 130.797 215.707 114.103 166.709 114.103Z" fill="#54A1FF"/>
</svg>
