<svg width="193" height="193" viewBox="0 0 193 193" fill="none" xmlns="http://www.w3.org/2000/svg">
<path d="M193 96.5C193 109.073 190.597 121.082 186.221 132.099C183.882 137.991 180.979 143.6 177.575 148.854C173.337 155.408 168.323 161.415 162.667 166.74C159.355 169.864 155.826 172.751 152.099 175.382C136.384 186.481 117.206 193 96.5 193C75.794 193 56.6161 186.481 40.9002 175.382C36.2365 172.089 31.8804 168.399 27.8825 164.349C10.6425 146.92 0 122.949 0 96.5C0 70.0511 10.6425 46.0799 27.8825 28.6507C32.1168 24.3655 36.7526 20.4776 41.7272 17.0432C57.2856 6.29399 76.1562 0 96.5 0C116.844 0 135.714 6.29399 151.273 17.0432C155.074 19.6626 158.674 22.5535 162.049 25.6848C167.961 31.1518 173.184 37.3553 177.576 44.1457C180.979 49.4001 183.882 55.0088 186.222 60.9013C190.597 71.9181 193 83.9275 193 96.5Z" fill="#1B1D2E"/>
<path d="M104.646 96.2356C104.646 91.6476 100.925 87.9253 96.3392 87.9253C91.7511 87.9253 88.0327 91.6476 88.0327 96.2356C88.0327 100.826 91.7511 104.546 96.3392 104.546C100.925 104.546 104.646 100.826 104.646 96.2356Z" fill="#A0DCF0"/>
<path d="M120.245 153.433C114.233 153.433 107.203 150.534 99.7257 144.863C89.5552 137.154 79.4174 125.046 71.18 110.77C62.9407 96.4928 57.5291 81.6537 55.9396 68.9876C54.208 55.1831 57.2507 45.2698 64.5091 41.0772C71.7655 36.8846 81.8669 39.2055 92.9511 47.608C103.122 55.3194 113.26 67.4269 121.497 81.7036C129.736 95.9803 135.148 110.818 136.737 123.484C138.471 137.29 135.426 147.203 128.17 151.394C125.808 152.759 123.144 153.433 120.245 153.433ZM72.5027 46.7461C70.9324 46.7461 69.5406 47.0801 68.3638 47.7597C64.0272 50.2629 62.288 57.6499 63.5896 68.0277C65.0543 79.6956 70.1203 93.5058 77.8567 106.911C85.593 120.318 95.0148 131.612 104.383 138.714C112.714 145.03 119.978 147.217 124.313 144.713C128.65 142.208 130.389 134.821 129.087 124.445C127.623 112.776 122.557 98.9673 114.82 85.5602C107.084 72.155 97.664 60.8596 88.294 53.7568C82.2239 49.1553 76.7202 46.7461 72.5027 46.7461Z" fill="#54A1FF"/>
<path d="M72.4316 153.433C69.5329 153.433 66.8703 152.759 64.5091 151.394C57.2507 147.203 54.208 137.29 55.9396 123.484C57.5291 110.818 62.9407 95.9803 71.18 81.7036C79.4174 67.4269 89.5552 55.3194 99.7257 47.608C110.81 39.2055 120.911 36.8846 128.17 41.0772C135.426 45.2698 138.471 55.1831 136.737 68.9876C135.148 81.6537 129.736 96.4928 121.497 110.77C113.26 125.044 103.122 137.154 92.9511 144.863C85.474 150.532 78.4441 153.433 72.4316 153.433ZM120.174 46.7461C115.957 46.7461 110.455 49.1553 104.383 53.7568C95.0148 60.8596 85.593 72.155 77.8586 85.5602C70.1222 98.9673 65.0543 112.776 63.5915 124.445C62.288 134.821 64.0292 142.208 68.3638 144.713C72.7004 147.219 79.9645 145.03 88.2959 138.714C97.664 131.612 107.084 120.318 114.82 106.911C122.557 93.5058 127.623 79.6975 129.087 68.0277C130.389 57.6499 128.65 50.2629 124.313 47.7597C123.138 47.0801 121.745 46.7461 120.174 46.7461Z" fill="#54A1FF"/>
<path d="M96.3394 125.302C79.8627 125.302 64.3114 122.572 52.5533 117.615C39.7356 112.213 32.6769 104.621 32.6769 96.2356C32.6769 87.8504 39.7356 80.2599 52.5533 74.856C64.3114 69.9013 79.8627 67.1715 96.3394 67.1715C112.816 67.1715 128.366 69.9013 140.126 74.856C152.941 80.2599 160 87.8504 160 96.2356C160 104.621 152.941 112.213 140.126 117.615C128.366 122.572 112.816 125.302 96.3394 125.302ZM96.3394 74.8867C63.3669 74.8867 40.3883 86.138 40.3883 96.2356C40.3883 106.335 63.3669 117.586 96.3394 117.586C129.31 117.586 152.289 106.335 152.289 96.2356C152.289 86.138 129.31 74.8867 96.3394 74.8867Z" fill="#54A1FF"/>
</svg>
